# xmcd
#
# Track frame offsets: 
#        150
#        3777
#        19545
#        48100
#        66797
#        90301
#        107947
#        131387
#        151401
#        186978
#        232770
#        258946
#        272631
#
# Disc length: 4362 seconds
#
# Revision: 0
# Processed by: cddbd v1.5.1PL0 Copyright (c) Steve Scherf et al.
# Submitted via: ExactAudioCopy v0.95a4
#
DISCID=9411080d
DTITLE=Willie Nelson and Merle Haggard - La Zona Rosa
DYEAR=1997
DGENRE=Country
TTITLE0=Willie says hello
TTITLE1=Funny How Time Slips Away
TTITLE2=I think I'll Just Stay Here and Drink
TTITLE3=Big City
TTITLE4=The Silver Eagle
TTITLE5=Love is King
TTITLE6=Crazy--Don't Let Your Deal Go Down
TTITLE7=Be My Valentine
TTITLE8=Old Fashioned Love in My Heart--Natural High
TTITLE9=Rosetta--I'm Not Trying to Forget You Anymore
TTITLE10=Look What Thoughts Will Do--I Want to Be With You Always
TTITLE11=If You Got the Money Honey I Got the Time
TTITLE12=Pancho and Lefty--Reasons to Quit
EXTD=
EXTT0=
EXTT1=
EXTT2=
EXTT3=
EXTT4=
EXTT5=
EXTT6=
EXTT7=
EXTT8=
EXTT9=
EXTT10=
EXTT11=
EXTT12=
PLAYORDER=
